# xmcd
# 
# Track frame offsets:
#     150
#     19529
#     36102
#     50039
#     66988
#     78613
#     89379
#     116840
#     129808
#     152653
#     164177
#     177062
#     189890
# 
# Disc length: 2782
# 
# Revision: 1
# Processed by: cddbd v1.5.2PL0 Copyright (c) Steve Scherf et al.
# Submitted via: fre:ac v1.0.27
# 
DISCID=a80adc0d
DTITLE=Pass Over Blues - The
DYEAR=0
DGENRE=Blues
TTITLE0=the mistake
TTITLE1=the distance
TTITLE2=the day
TTITLE3=the dicision
TTITLE4=the one
TTITLE5=the sense
TTITLE6=the people
TTITLE7=the question
TTITLE8=the past
TTITLE9=the move
TTITLE10=the time
TTITLE11=the answer
TTITLE12=while my guitar gentle weeps
EXTD=
EXTT0=
EXTT1=
EXTT2=
EXTT3=
EXTT4=
EXTT5=
EXTT6=
EXTT7=
EXTT8=
EXTT9=
EXTT10=
EXTT11=
EXTT12=
PLAYORDER=
